<?xml version="1.0" encoding="UTF-8"?>
<svg xmlns="http://www.w3.org/2000/svg" xmlns:xlink="http://www.w3.org/1999/xlink" width="50px" height="50px" viewBox="0 0 50 50" version="1.1">
<g id="surface1">
<path style=" stroke:none;fill-rule:nonzero;fill:rgb(0%,0%,0%);fill-opacity:1;" d="M 0 25 L 0 50 L 50 50 L 50 0 L 0 0 Z M 17.550781 13.300781 L 24.949219 20.699219 L 22.820312 22.820312 L 20.699219 24.949219 L 5.851562 10.101562 L 7.949219 8 C 9.101562 6.851562 10.070312 5.898438 10.101562 5.898438 C 10.132812 5.898438 13.480469 9.230469 17.550781 13.300781 Z M 42.050781 8 L 44.148438 10.101562 L 29.300781 24.949219 L 27.179688 22.820312 L 25.050781 20.699219 L 32.449219 13.300781 C 36.519531 9.230469 39.867188 5.898438 39.898438 5.898438 C 39.929688 5.898438 40.898438 6.851562 42.050781 8 Z M 22.851562 27.199219 L 24.949219 29.300781 L 10.101562 44.148438 L 7.980469 42.019531 L 5.851562 39.898438 L 13.25 32.5 C 17.320312 28.429688 20.671875 25.101562 20.699219 25.101562 C 20.730469 25.101562 21.699219 26.050781 22.851562 27.199219 Z M 36.75 32.5 L 44.148438 39.898438 L 42.019531 42.019531 L 39.898438 44.148438 L 25.050781 29.300781 L 27.148438 27.199219 C 28.300781 26.050781 29.269531 25.101562 29.300781 25.101562 C 29.328125 25.101562 32.679688 28.429688 36.75 32.5 Z M 36.75 32.5 "/>
</g>
</svg>
