<?xml version="1.0" encoding="UTF-8"?>
<svg xmlns="http://www.w3.org/2000/svg" xmlns:xlink="http://www.w3.org/1999/xlink" width="24px" height="24px" viewBox="0 0 24 24" version="1.1">
<defs>
<filter id="alpha" filterUnits="objectBoundingBox" x="0%" y="0%" width="100%" height="100%">
  <feColorMatrix type="matrix" in="SourceGraphic" values="0 0 0 0 1 0 0 0 0 1 0 0 0 0 1 0 0 0 1 0"/>
</filter>
<mask id="mask0">
  <g filter="url(#alpha)">
<rect x="0" y="0" width="24" height="24" style="fill:rgb(0%,0%,0%);fill-opacity:0.992157;stroke:none;"/>
  </g>
</mask>
<clipPath id="clip1">
  <rect x="0" y="0" width="24" height="24"/>
</clipPath>
<g id="surface5" clip-path="url(#clip1)">
<path style=" stroke:none;fill-rule:evenodd;fill:rgb(97.647059%,97.647059%,97.647059%);fill-opacity:1;" d="M 11.929688 9.863281 C 11.929688 9.894531 11.929688 9.929688 11.929688 9.960938 C 11.304688 10.617188 10.664062 11.257812 10.007812 11.878906 C 9.945312 11.945312 9.878906 11.945312 9.816406 11.878906 C 7.457031 9.546875 5.105469 7.203125 2.761719 4.847656 C 2.785156 4.828125 2.800781 4.804688 2.808594 4.777344 C 2.980469 4.683594 3.125 4.554688 3.238281 4.390625 C 3.625 3.992188 4.007812 3.589844 4.390625 3.191406 C 4.546875 3.117188 4.675781 3.003906 4.777344 2.855469 C 4.777344 2.78125 4.808594 2.757812 4.871094 2.785156 C 7.226562 5.132812 9.578125 7.492188 11.929688 9.863281 Z M 11.929688 9.863281 "/>
</g>
<mask id="mask1">
  <g filter="url(#alpha)">
<rect x="0" y="0" width="24" height="24" style="fill:rgb(0%,0%,0%);fill-opacity:0.996078;stroke:none;"/>
  </g>
</mask>
<clipPath id="clip2">
  <rect x="0" y="0" width="24" height="24"/>
</clipPath>
<g id="surface8" clip-path="url(#clip2)">
<path style=" stroke:none;fill-rule:evenodd;fill:rgb(97.254902%,97.254902%,97.254902%);fill-opacity:1;" d="M 14.136719 11.878906 C 14.070312 11.945312 14.007812 11.945312 13.945312 11.878906 C 13.289062 11.257812 12.648438 10.617188 12.023438 9.960938 C 12.027344 9.90625 12.042969 9.859375 12.070312 9.816406 C 14.398438 7.464844 16.734375 5.121094 19.078125 2.785156 C 19.113281 2.753906 19.144531 2.753906 19.175781 2.785156 C 19.824219 3.464844 20.488281 4.128906 21.167969 4.777344 C 21.199219 4.808594 21.199219 4.839844 21.167969 4.871094 C 18.832031 7.21875 16.484375 9.554688 14.136719 11.878906 Z M 14.136719 11.878906 "/>
</g>
<mask id="mask2">
  <g filter="url(#alpha)">
<rect x="0" y="0" width="24" height="24" style="fill:rgb(0%,0%,0%);fill-opacity:0.623529;stroke:none;"/>
  </g>
</mask>
<clipPath id="clip3">
  <rect x="0" y="0" width="24" height="24"/>
</clipPath>
<g id="surface11" clip-path="url(#clip3)">
<path style=" stroke:none;fill-rule:evenodd;fill:rgb(48.627451%,48.627451%,48.627451%);fill-opacity:1;" d="M 4.777344 2.855469 C 4.675781 3.003906 4.546875 3.117188 4.390625 3.191406 C 4.492188 3.042969 4.621094 2.933594 4.777344 2.855469 Z M 4.777344 2.855469 "/>
</g>
<mask id="mask3">
  <g filter="url(#alpha)">
<rect x="0" y="0" width="24" height="24" style="fill:rgb(0%,0%,0%);fill-opacity:0.67451;stroke:none;"/>
  </g>
</mask>
<clipPath id="clip4">
  <rect x="0" y="0" width="24" height="24"/>
</clipPath>
<g id="surface14" clip-path="url(#clip4)">
<path style=" stroke:none;fill-rule:evenodd;fill:rgb(53.72549%,53.72549%,53.72549%);fill-opacity:1;" d="M 3.238281 4.390625 C 3.125 4.554688 2.980469 4.683594 2.808594 4.777344 C 2.921875 4.613281 3.066406 4.484375 3.238281 4.390625 Z M 3.238281 4.390625 "/>
</g>
<mask id="mask4">
  <g filter="url(#alpha)">
<rect x="0" y="0" width="24" height="24" style="fill:rgb(0%,0%,0%);fill-opacity:0.113725;stroke:none;"/>
  </g>
</mask>
<clipPath id="clip5">
  <rect x="0" y="0" width="24" height="24"/>
</clipPath>
<g id="surface17" clip-path="url(#clip5)">
<path style=" stroke:none;fill-rule:evenodd;fill:rgb(16.078431%,16.078431%,16.078431%);fill-opacity:1;" d="M 12.070312 9.816406 C 12.042969 9.859375 12.027344 9.90625 12.023438 9.960938 C 11.992188 9.960938 11.960938 9.960938 11.929688 9.960938 C 11.929688 9.929688 11.929688 9.894531 11.929688 9.863281 C 11.972656 9.835938 12.019531 9.820312 12.070312 9.816406 Z M 12.070312 9.816406 "/>
</g>
<mask id="mask5">
  <g filter="url(#alpha)">
<rect x="0" y="0" width="24" height="24" style="fill:rgb(0%,0%,0%);fill-opacity:0.00784314;stroke:none;"/>
  </g>
</mask>
<clipPath id="clip6">
  <rect x="0" y="0" width="24" height="24"/>
</clipPath>
<g id="surface20" clip-path="url(#clip6)">
<path style=" stroke:none;fill-rule:evenodd;fill:rgb(14.117647%,14.117647%,14.117647%);fill-opacity:1;" d="M 13.945312 11.878906 C 14.007812 11.945312 14.070312 11.945312 14.136719 11.878906 C 14.136719 11.945312 14.136719 12.007812 14.136719 12.070312 C 14.042969 12.011719 13.964844 12.027344 13.894531 12.121094 C 13.921875 12.042969 13.9375 11.960938 13.945312 11.878906 Z M 13.945312 11.878906 "/>
</g>
<mask id="mask6">
  <g filter="url(#alpha)">
<rect x="0" y="0" width="24" height="24" style="fill:rgb(0%,0%,0%);fill-opacity:0.215686;stroke:none;"/>
  </g>
</mask>
<clipPath id="clip7">
  <rect x="0" y="0" width="24" height="24"/>
</clipPath>
<g id="surface23" clip-path="url(#clip7)">
<path style=" stroke:none;fill-rule:evenodd;fill:rgb(16.078431%,16.078431%,16.078431%);fill-opacity:1;" d="M 9.816406 11.878906 C 9.878906 11.945312 9.945312 11.945312 10.007812 11.878906 C 10.007812 11.945312 10.007812 12.007812 10.007812 12.070312 C 9.917969 12.011719 9.835938 12.027344 9.769531 12.121094 C 9.792969 12.042969 9.808594 11.960938 9.816406 11.878906 Z M 9.816406 11.878906 "/>
</g>
<mask id="mask7">
  <g filter="url(#alpha)">
<rect x="0" y="0" width="24" height="24" style="fill:rgb(0%,0%,0%);fill-opacity:0.992157;stroke:none;"/>
  </g>
</mask>
<clipPath id="clip8">
  <rect x="0" y="0" width="24" height="24"/>
</clipPath>
<g id="surface26" clip-path="url(#clip8)">
<path style=" stroke:none;fill-rule:evenodd;fill:rgb(98.431373%,98.431373%,98.431373%);fill-opacity:1;" d="M 10.007812 12.070312 C 10.628906 12.726562 11.269531 13.367188 11.929688 13.992188 C 11.929688 14.023438 11.929688 14.054688 11.929688 14.089844 C 9.546875 16.4375 7.175781 18.808594 4.824219 21.191406 C 4.144531 20.488281 3.457031 19.792969 2.761719 19.105469 C 5.089844 16.765625 7.425781 14.4375 9.769531 12.121094 C 9.835938 12.027344 9.917969 12.011719 10.007812 12.070312 Z M 10.007812 12.070312 "/>
</g>
<mask id="mask8">
  <g filter="url(#alpha)">
<rect x="0" y="0" width="24" height="24" style="fill:rgb(0%,0%,0%);fill-opacity:0.992157;stroke:none;"/>
  </g>
</mask>
<clipPath id="clip9">
  <rect x="0" y="0" width="24" height="24"/>
</clipPath>
<g id="surface29" clip-path="url(#clip9)">
<path style=" stroke:none;fill-rule:evenodd;fill:rgb(98.431373%,98.431373%,98.431373%);fill-opacity:1;" d="M 14.136719 12.070312 C 16.496094 14.40625 18.847656 16.75 21.191406 19.105469 C 20.519531 19.777344 19.847656 20.449219 19.175781 21.121094 C 19.109375 21.136719 19.042969 21.117188 18.984375 21.070312 C 16.683594 18.714844 14.363281 16.386719 12.023438 14.089844 C 12.027344 14.035156 12.042969 13.988281 12.070312 13.945312 C 12.664062 13.320312 13.273438 12.710938 13.894531 12.121094 C 13.964844 12.027344 14.042969 12.011719 14.136719 12.070312 Z M 14.136719 12.070312 "/>
</g>
<mask id="mask9">
  <g filter="url(#alpha)">
<rect x="0" y="0" width="24" height="24" style="fill:rgb(0%,0%,0%);fill-opacity:0.137255;stroke:none;"/>
  </g>
</mask>
<clipPath id="clip10">
  <rect x="0" y="0" width="24" height="24"/>
</clipPath>
<g id="surface32" clip-path="url(#clip10)">
<path style=" stroke:none;fill-rule:evenodd;fill:rgb(26.27451%,26.27451%,26.27451%);fill-opacity:1;" d="M 12.070312 13.945312 C 12.042969 13.988281 12.027344 14.035156 12.023438 14.089844 C 11.992188 14.089844 11.960938 14.089844 11.929688 14.089844 C 11.929688 14.054688 11.929688 14.023438 11.929688 13.992188 C 11.972656 13.960938 12.019531 13.945312 12.070312 13.945312 Z M 12.070312 13.945312 "/>
</g>
</defs>
<g id="surface1">
<use xlink:href="#surface5" mask="url(#mask0)"/>
<use xlink:href="#surface8" mask="url(#mask1)"/>
<use xlink:href="#surface11" mask="url(#mask2)"/>
<use xlink:href="#surface14" mask="url(#mask3)"/>
<use xlink:href="#surface17" mask="url(#mask4)"/>
<use xlink:href="#surface20" mask="url(#mask5)"/>
<use xlink:href="#surface23" mask="url(#mask6)"/>
<use xlink:href="#surface26" mask="url(#mask7)"/>
<use xlink:href="#surface29" mask="url(#mask8)"/>
<use xlink:href="#surface32" mask="url(#mask9)"/>
</g>
</svg>
