<?xml version="1.0" encoding="UTF-8"?>
<svg xmlns="http://www.w3.org/2000/svg" xmlns:xlink="http://www.w3.org/1999/xlink" width="25px" height="25px" viewBox="0 0 25 25" version="1.1">
<g id="surface1">
<path style=" stroke:none;fill-rule:evenodd;fill:rgb(99.607843%,99.607843%,99.607843%);fill-opacity:1;" d="M -0.0234375 -0.0234375 C 8.308594 -0.0234375 16.640625 -0.0234375 24.976562 -0.0234375 C 24.976562 8.308594 24.976562 16.640625 24.976562 24.976562 C 16.640625 24.976562 8.308594 24.976562 -0.0234375 24.976562 C -0.0234375 16.640625 -0.0234375 8.308594 -0.0234375 -0.0234375 Z M -0.0234375 -0.0234375 "/>
<path style=" stroke:none;fill-rule:evenodd;fill:rgb(0%,0%,0%);fill-opacity:1;" d="M 4.976562 2.925781 C 7.472656 5.347656 9.945312 7.796875 12.398438 10.273438 C 12.433594 10.308594 12.433594 10.339844 12.398438 10.375 C 11.726562 11.050781 11.050781 11.726562 10.375 12.398438 C 10.339844 12.433594 10.308594 12.433594 10.273438 12.398438 C 7.832031 9.957031 5.390625 7.515625 2.949219 5.074219 C 2.917969 5.042969 2.917969 5.007812 2.949219 4.976562 C 3.636719 4.296875 4.308594 3.613281 4.976562 2.925781 Z M 4.976562 2.925781 "/>
<path style=" stroke:none;fill-rule:evenodd;fill:rgb(0%,0%,0%);fill-opacity:1;" d="M 19.875 2.925781 C 20.605469 3.578125 21.3125 4.261719 22 4.976562 C 22.035156 5.007812 22.035156 5.042969 22 5.074219 C 19.558594 7.515625 17.117188 9.957031 14.675781 12.398438 C 14.640625 12.433594 14.609375 12.433594 14.574219 12.398438 C 13.898438 11.726562 13.226562 11.050781 12.550781 10.375 C 12.515625 10.339844 12.515625 10.308594 12.550781 10.273438 C 15 7.832031 17.445312 5.382812 19.875 2.925781 Z M 19.875 2.925781 "/>
<path style=" stroke:none;fill-rule:evenodd;fill:rgb(0%,0%,0%);fill-opacity:1;" d="M 10.273438 12.523438 C 11.003906 13.179688 11.710938 13.863281 12.398438 14.574219 C 12.433594 14.609375 12.433594 14.640625 12.398438 14.675781 C 9.957031 17.117188 7.515625 19.558594 5.074219 22 C 5.042969 22.035156 5.007812 22.035156 4.976562 22 C 4.300781 21.324219 3.625 20.648438 2.949219 19.976562 C 2.917969 19.941406 2.917969 19.910156 2.949219 19.875 C 5.402344 17.429688 7.84375 14.980469 10.273438 12.523438 Z M 10.273438 12.523438 "/>
<path style=" stroke:none;fill-rule:evenodd;fill:rgb(0%,0%,0%);fill-opacity:1;" d="M 14.574219 12.523438 C 17.070312 14.945312 19.546875 17.394531 22 19.875 C 22.035156 19.910156 22.035156 19.941406 22 19.976562 C 21.324219 20.648438 20.648438 21.324219 19.976562 22 C 19.941406 22.035156 19.910156 22.035156 19.875 22 C 17.433594 19.558594 14.992188 17.117188 12.550781 14.675781 C 12.515625 14.640625 12.515625 14.609375 12.550781 14.574219 C 13.234375 13.898438 13.910156 13.214844 14.574219 12.523438 Z M 14.574219 12.523438 "/>
</g>
</svg>
